<svg width="110" height="110" viewBox="0 0 110 110" fill="none" xmlns="http://www.w3.org/2000/svg">
<rect width="110" height="110" fill="white"/>
<g clip-path="url(#clip0_1707_33)">
<path fill-rule="evenodd" clip-rule="evenodd" d="M8 5H101.277V64.4538H100.017V6.2605H9.2605V103.529H40.9832V104.79H8V5Z" fill="#535353"/>
<path d="M87.8719 104.773C82.884 104.773 77.8962 103.316 75.2059 101.411L77.8962 96.0865C80.5298 97.8239 84.5651 99.0567 88.3202 99.0567C92.7475 99.0567 94.5966 97.8239 94.5966 95.75C94.5966 90.0336 76.1025 95.4139 76.1025 83.4769C76.1025 77.8164 81.2025 74.1176 89.2727 74.1176C93.2517 74.1176 97.7912 75.0702 100.481 76.6958L97.7912 82.0197C94.9332 80.3382 92.0748 79.7781 89.2168 79.7781C84.9576 79.7781 82.9399 81.179 82.9399 83.1408C82.9399 89.1933 101.434 83.813 101.434 95.526C101.434 101.13 96.2782 104.773 87.8719 104.773Z" fill="#535353"/>
<path d="M57.6966 74.1176C66.3273 74.1176 71.3151 78.2088 71.3151 86.8395V104.381H64.7021V100.738C63.021 103.316 59.7706 104.773 55.287 104.773C48.4498 104.773 44.1345 101.018 44.1345 95.8063C44.1345 90.8185 47.497 86.8954 56.5761 86.8954H64.3101V86.4471C64.3101 82.3559 61.8441 79.9462 56.8563 79.9462C53.4937 79.9462 50.0189 81.0668 47.7772 82.9164L45.0311 77.8164C48.2256 75.3504 52.8773 74.1176 57.6966 74.1176ZM56.7441 99.6731C60.1626 99.6731 63.1332 98.1042 64.3101 95.0214V91.5471H57.0803C52.3168 91.5471 51.0277 93.3403 51.0277 95.526C51.0277 98.0479 53.1576 99.6731 56.7441 99.6731Z" fill="#535353"/>
</g>
<defs>
<clipPath id="clip0_1707_33">
<rect width="93.6975" height="100" fill="white" transform="translate(8 5)"/>
</clipPath>
</defs>
</svg>
