<svg width="300" height="300" viewBox="0 0 300 300" fill="none" xmlns="http://www.w3.org/2000/svg">
<rect width="300" height="300" rx="150" fill="url(#paint0_linear_2976_11462)"/>
<g style="mix-blend-mode:color-dodge">
<path d="M244.851 163.8L236.051 184.1C228.351 180.3 216.051 176.3 205.151 176.2C195.251 176.2 190.251 179.7 190.251 185C190.251 190.6 197.251 192 206.051 193.3L214.651 194.6C235.651 197.8 247.351 207.2 247.351 223.6C247.351 243.6 230.951 256.5 202.851 256.5C189.651 256.5 172.351 254 159.751 245.1L170.051 225.3C178.351 230.8 188.451 234.8 203.051 234.8C215.151 234.8 220.951 231.4 220.951 225.7C220.951 221 216.051 218.4 204.851 216.8L196.951 215.7C174.551 212.6 163.451 202.8 163.451 186.3C163.451 166.4 178.851 154.6 204.351 154.6C219.851 154.6 231.951 157.5 244.851 163.8Z" fill="#C1C1C1"/>
<path d="M149.1 157.1V254H123.6V243.3C117.3 251.1 107.9 256.5 94.5999 256.5C67.9 256.5 47.7 234.6 47.7 205.5C47.7 176.4 67.9 154.5 94.5999 154.5C107.9 154.5 117.2 159.9 123.6 167.8V157.1H149.1ZM99.4 178.8C84.1 178.8 74.4 190.7 74.4 205.5C74.4 220.3 84.1 232.2 99.4 232.2C114.3 232.2 124.4 220.8 124.4 205.5C124.4 190.2 114.3 178.8 99.4 178.8Z" fill="#C1C1C1"/>
</g>
<defs>
<linearGradient id="paint0_linear_2976_11462" x1="-35.5" y1="-26" x2="239.5" y2="281" gradientUnits="userSpaceOnUse">
<stop stop-color="#FFA900"/>
<stop offset="1" stop-color="#050505" stop-opacity="0"/>
</linearGradient>
</defs>
</svg>
