<svg width="697" height="430" viewBox="0 0 697 430" fill="none" xmlns="http://www.w3.org/2000/svg">
<path d="M0 265C0 173.873 73.873 100 165 100C176.266 100 187.281 101.132 197.933 103.291C235.65 41.3833 303.815 0 381.667 0C484.77 0.000159329 570.895 72.5616 591.814 169.403C651.679 181.795 696.667 234.8 696.667 298.333C696.667 371.05 637.717 430 565 430H165C73.873 430 5.15413e-06 356.127 0 265ZM30 265C30 339.558 90.4416 400 165 400H565C621.149 400 666.667 354.482 666.667 298.333C666.667 246.336 627.618 203.437 577.254 197.396L566.055 196.053L564.236 184.922C549.879 97.0575 473.59 30.0002 381.667 30C311.135 30 249.797 69.4663 218.574 127.591L212.895 138.164L201.333 134.941C189.79 131.724 177.609 130 165 130C90.4416 130 30 190.442 30 265Z" fill="#65DE90"/>
<path d="M333.333 166.667H363.333V330H333.333V166.667Z" fill="#65DE90"/>
<path d="M436.214 215L415 236.213L348.333 169.546L281.667 236.213L260.454 215L348.334 127.12L436.214 215Z" fill="#65DE90"/>
</svg>
