<svg width="600" height="600" viewBox="0 0 600 600" fill="none" xmlns="http://www.w3.org/2000/svg">
<path fill-rule="evenodd" clip-rule="evenodd" d="M300 66.6667C171.133 66.6667 66.6667 171.133 66.6667 300C66.6667 428.867 171.133 533.333 300 533.333C428.867 533.333 533.333 428.867 533.333 300C533.333 171.133 428.867 66.6667 300 66.6667ZM0 300C0 134.315 134.315 0 300 0C465.686 0 600 134.315 600 300C600 465.686 465.686 600 300 600C134.315 600 0 465.686 0 300Z" fill="#E50000"/>
<path fill-rule="evenodd" clip-rule="evenodd" d="M300 133.333C318.409 133.333 333.333 148.257 333.333 166.667V316.667C333.333 335.076 318.409 350 300 350C281.59 350 266.667 335.076 266.667 316.667V166.667C266.667 148.257 281.59 133.333 300 133.333Z" fill="#E50000"/>
<path d="M333.333 416.667C333.333 435.077 318.41 450 300 450C281.59 450 266.667 435.077 266.667 416.667C266.667 398.257 281.59 383.333 300 383.333C318.41 383.333 333.333 398.257 333.333 416.667Z" fill="#E50000"/>
</svg>
