<svg width="163" height="210" viewBox="0 0 163 210" fill="none" xmlns="http://www.w3.org/2000/svg">
<path d="M151.67 162.83C151.67 165.369 151.442 167.68 150.986 169.763C150.563 171.814 149.88 173.702 148.936 175.427C147.992 177.153 146.771 178.748 145.273 180.213C143.776 181.677 141.969 183.077 139.854 184.412L151.475 205.115L129.502 209.412L121.982 188.611L115.928 188.806L115.049 209.119H94.0527C94.2155 201.697 94.362 194.308 94.4922 186.951C94.6549 179.594 94.834 172.205 95.0293 164.783C95.0944 161.039 95.1595 157.328 95.2246 153.65C95.2897 149.972 95.4199 146.261 95.6152 142.517C97.8939 141.671 100.14 140.971 102.354 140.418C104.567 139.864 106.781 139.441 108.994 139.148C111.24 138.823 113.503 138.611 115.781 138.513C118.092 138.383 120.452 138.318 122.861 138.318C126.572 138.318 130.153 138.839 133.604 139.88C137.087 140.89 140.163 142.42 142.832 144.47C145.501 146.521 147.633 149.076 149.229 152.136C150.856 155.196 151.67 158.761 151.67 162.83ZM129.795 164.392C129.795 163.025 129.6 161.772 129.209 160.632C128.851 159.493 128.298 158.517 127.549 157.703C126.833 156.856 125.921 156.205 124.814 155.75C123.74 155.261 122.471 155.017 121.006 155.017C120.355 155.017 119.72 155.066 119.102 155.164C118.483 155.229 117.881 155.343 117.295 155.505L116.514 173.67H117.686C119.085 173.67 120.501 173.491 121.934 173.132C123.398 172.774 124.701 172.221 125.84 171.472C127.012 170.724 127.956 169.763 128.672 168.591C129.421 167.42 129.795 166.02 129.795 164.392Z" fill="white"/>
<path d="M97.7344 139.49C97.5391 142.55 97.36 145.577 97.1973 148.572C97.0345 151.567 96.8229 154.594 96.5625 157.654L75.8594 158.728L75.3711 164.88H89.9219L88.8477 180.017L74.1992 180.505L73.7109 187.634H85.8203H94.4141C94.2188 191.215 94.0072 194.78 93.7793 198.328C93.584 201.843 93.4049 205.375 93.2422 208.923L51.1523 209.9L52.7148 139.49H97.7344Z" fill="white"/>
<path d="M53.8086 140.076L53.3203 160.779L38.7695 161.365L35.0586 207.654L14.4531 208.728L14.5508 162.439L0 163.22L0.585938 140.173L53.8086 140.076Z" fill="white"/>
<path d="M70.957 57.5758C72.4219 58.0641 73.3333 58.9755 73.6914 60.3102L72.2754 70.4176V105.476H74.2773C85.0846 86.5634 90.4883 73.5426 90.4883 66.4137C92.4089 64.5908 94.1992 63.6793 95.8594 63.6793L98.5938 67.0973C95.4362 71.4267 88.2259 85.831 76.9629 110.31V112.312C80.8366 128.979 86.0449 137.312 92.5879 137.312V139.998L89.1699 140.584C83.7663 140.584 78.3626 132.722 72.959 117H72.2754L68.8574 146.004L68.2715 146.687H65.5859C64.4466 146.687 63.7467 145.792 63.4863 144.002C65.0814 144.002 66.6764 128.263 68.2715 96.7848L67.5879 59.5777L70.957 57.5758Z" fill="white"/>
<path d="M54.9121 56.8922C59.7624 57.0224 62.2852 79.4182 62.4805 124.08L64.5801 145.711L61.2109 146.296H59.7949L57.793 144.295V119.295L57.1094 109.187H56.4746C45.6999 110.522 39.8079 112.8 38.7988 116.023C37.0736 132.397 35.7715 140.681 34.8926 140.877H32.207L29.4727 138.191C31.6862 121.069 35.2995 102.172 40.3125 81.5016C43.763 64.4443 48.6296 56.2412 54.9121 56.8922ZM40.9961 104.5L44.3164 107.088C53.3008 105.102 57.793 103.572 57.793 102.498V90.2906L58.4766 81.5016L56.8164 74.7145C55.5469 69.3108 54.2122 66.609 52.8125 66.609C49.9479 66.609 46.0091 79.2392 40.9961 104.5Z" fill="white"/>
<path d="M22.998 63.3863H25.6836C29.6875 63.3863 31.6895 66.5602 31.6895 72.9078C27.9134 85.831 21.6146 95.2548 12.793 101.179V103.279C21.0612 127.823 27.1647 141.332 31.1035 143.806L33.7891 144.392V147.078L30.4199 149.812C27.6204 149.812 23.112 141.511 16.8945 124.91L9.52148 108.015H7.42188V108.699L8.20312 120.076C8.20312 133.162 7.03125 139.705 4.6875 139.705H2.7832C1.74154 139.705 1.04167 138.565 0.683594 136.287L2.7832 129.597L4.10156 81.0133C1.82292 81.0133 0.683594 80.1018 0.683594 78.2789C2.50651 75.5445 3.41797 73.5263 3.41797 72.2242V66.8043L5.51758 64.8023H6.10352L10.8887 66.1207L22.998 63.3863ZM8.78906 73.5914L8.20312 91.8043V96.4918L9.52148 97.9078H10.8887C21.1751 88.8258 26.3184 80.7203 26.3184 73.5914V70.2223L23.584 67.4879H22.998C17.9525 67.4879 13.2161 69.5224 8.78906 73.5914Z" fill="white"/>
<path d="M54.2031 69.9V69.1C56.2031 69.1 58.0365 68.2333 59.7031 66.5C61.3698 64.7667 62.5698 62.6333 63.3031 60.1L79.8031 0H84.3031L102.803 62.9C103.203 64.4333 104.103 65.8667 105.503 67.2C106.903 68.4667 108.736 69.1 111.003 69.1V69.9H80.6031V69.1C85.0031 69.1 88.0698 68.6 89.8031 67.6C91.5365 66.5333 92.1031 64.9667 91.5031 62.9L85.5031 42.6H69.3031L64.5031 60.3C64.1031 61.6333 64.1698 62.8667 64.7031 64C65.3031 65.0667 66.1365 66 67.2031 66.8C68.3365 67.5333 69.5698 68.1 70.9031 68.5C72.3031 68.9 73.6365 69.1 74.9031 69.1V69.9H54.2031ZM85.3031 41.6L77.0031 14L69.5031 41.6H85.3031Z" fill="white"/>
<path d="M1.70703 69.1C3.64036 69.1 5.24036 68.6333 6.50703 67.7C7.84036 66.7 8.50703 64.7333 8.50703 61.8V8.1C8.50703 5.16667 7.84036 3.23333 6.50703 2.3C5.24036 1.3 3.64036 0.800002 1.70703 0.800002V0H26.207V0.800002C24.207 0.800002 22.5737 1.3 21.307 2.3C20.0404 3.23333 19.407 5.16667 19.407 8.1V34.5L37.207 8.80001C39.207 5.86667 39.7737 3.8 38.907 2.6C38.0404 1.4 35.7737 0.800002 32.107 0.800002V0H53.107V0.800002C52.0404 0.800002 50.907 0.933335 49.707 1.2C48.507 1.4 47.2737 1.80001 46.007 2.40001C44.807 3.00001 43.5737 3.8 42.307 4.8C41.107 5.8 39.9404 7.1 38.807 8.7L28.307 23.7L46.907 61.6C48.2404 64.2667 49.7737 66.2 51.507 67.4C53.307 68.5333 55.1737 69.1 57.107 69.1V69.9H27.107V69.1C28.3737 69.1 29.5737 68.9333 30.707 68.6C31.907 68.2 32.8737 67.6333 33.607 66.9C34.407 66.1667 34.907 65.3 35.107 64.3C35.3737 63.2333 35.207 62.0667 34.607 60.8L21.407 33.6L19.407 36.4V61.8C19.407 64.7333 20.0404 66.7 21.307 67.7C22.5737 68.6333 24.207 69.1 26.207 69.1V69.9H1.70703V69.1Z" fill="white"/>
<path d="M162.707 44.9V44.9C121.286 44.9 87.707 78.4787 87.707 119.9V163.9H162.707V44.9Z" fill="#D10046"/>
<path d="M141.715 109.108C138.621 109.366 134.494 109.521 129.336 109.572C123.095 109.521 118.787 109.366 116.415 109.108C113.475 108.799 110.896 108.051 108.678 106.864C107.027 105.936 105.763 104.646 104.886 102.996C103.287 99.9009 102.643 96.5481 102.952 92.9374C103.055 92.0605 103.184 91.1837 103.339 90.3068C104.113 86.5413 106.15 83.6012 109.451 81.4863C112.237 79.7326 115.254 78.6752 118.504 78.3141C125.828 77.4372 132.637 77.953 138.93 79.8615C144.604 81.6153 148.937 84.7102 151.929 89.1462C154.301 92.6021 155.152 96.1613 154.482 99.8235C153.863 103.589 151.722 106.245 148.06 107.793C146.564 108.463 144.449 108.902 141.715 109.108ZM118.117 101.835C120.025 101.99 123.868 102.093 129.645 102.145C134.546 102.093 138.079 101.99 140.245 101.835C141.999 101.732 143.263 101.577 144.037 101.371C145.017 101.165 145.739 100.804 146.203 100.288C146.667 99.7204 146.899 98.9209 146.899 97.8892C146.951 96.187 146.358 94.4849 145.12 92.7827C143.469 90.4615 140.916 88.682 137.46 87.444C132.457 85.5871 127.041 84.9165 121.212 85.4323C118.426 85.6386 116.028 86.335 114.016 87.5214C112.469 88.4498 111.515 89.6362 111.153 91.0805C110.483 93.608 110.483 95.9807 111.153 98.1987C111.566 99.643 112.417 100.571 113.707 100.984C114.996 101.397 116.466 101.68 118.117 101.835Z" fill="white"/>
<path d="M132.276 125.477C133.101 125.529 133.643 125.529 133.901 125.477C133.952 125.323 133.849 124.987 133.591 124.471C132.508 122.15 132.199 119.7 132.663 117.121C133.179 113.923 134.855 111.524 137.692 109.925C139.549 108.842 141.715 108.275 144.191 108.223C145.275 108.223 146.538 108.61 147.983 109.384C150.097 110.467 151.722 112.143 152.857 114.413C153.992 116.631 154.379 118.926 154.018 121.299C153.295 126.199 150.407 129.733 145.352 131.899C143.237 132.879 140.503 133.369 137.15 133.369C130.6 133.421 124.023 132.363 117.421 130.197C113.861 129.011 111.179 127.927 109.374 126.947C107.156 125.761 105.531 124.214 104.499 122.305C103.468 120.448 103.081 118.591 103.339 116.734C103.39 116.322 103.468 116.089 103.571 116.038C103.674 115.986 103.932 115.986 104.345 116.038C105.634 116.347 107.465 116.786 109.838 117.353C110.251 117.456 110.483 117.611 110.534 117.817C110.947 119.004 112.108 119.984 114.016 120.758C115.615 121.428 117.292 122.073 119.045 122.692C123.12 124.085 127.531 125.013 132.276 125.477ZM145.12 123.156C146.203 122.124 146.77 121.015 146.822 119.829C146.77 118.54 146.255 117.482 145.275 116.657C144.604 116.089 143.83 115.857 142.953 115.96C142.076 116.012 141.303 116.373 140.632 117.044C140.065 117.663 139.755 118.436 139.704 119.365C139.652 120.242 139.91 120.964 140.477 121.531C141.561 122.666 142.799 123.311 144.191 123.466C144.604 123.466 144.913 123.362 145.12 123.156Z" fill="white"/>
<path d="M110.38 142.637C109.554 142.121 108.935 141.786 108.523 141.631C108.316 142.663 108.188 143.746 108.136 144.881C107.981 147.924 107.93 150.09 107.981 151.38C107.981 151.741 107.981 151.999 107.981 152.154C107.981 152.257 107.93 152.36 107.826 152.463C107.723 152.566 107.62 152.618 107.517 152.618C107.362 152.618 107.104 152.618 106.743 152.618C104.68 152.67 103.313 152.695 102.643 152.695C102.23 152.747 101.972 152.721 101.869 152.618C101.766 152.515 101.714 152.283 101.714 151.922C101.662 146.97 101.895 142.972 102.41 139.929C102.617 138.846 102.926 137.866 103.339 136.989C103.958 135.751 104.964 134.951 106.356 134.59C108.471 133.971 110.483 134.229 112.391 135.364C113.114 135.777 114.377 136.705 116.183 138.149C116.853 138.665 117.807 139.439 119.045 140.471C120.283 141.451 121.057 142.095 121.367 142.405C121.882 142.817 122.269 143.05 122.527 143.101C123.198 141.347 124.075 139.723 125.158 138.227C127.531 134.977 130.522 132.862 134.133 131.882C137.744 130.851 141.251 130.98 144.656 132.269C148.008 133.507 150.665 135.57 152.625 138.459C154.637 141.451 155.436 144.597 155.023 147.898C154.817 149.549 154.172 151.122 153.089 152.618C152.78 153.031 152.444 153.056 152.083 152.695C150.897 151.509 149.607 150.271 148.215 148.981C147.905 148.672 147.854 148.311 148.06 147.898C148.473 147.125 148.55 146.17 148.292 145.035C147.776 142.817 146.487 141.09 144.423 139.852C141.174 137.943 138.002 137.634 134.907 138.923C131.76 140.213 129.697 142.611 128.717 146.119C128.356 147.253 128.175 148.724 128.175 150.529C128.227 151.303 127.892 151.818 127.169 152.076C126.499 152.283 125.88 152.541 125.313 152.85C124.59 153.263 123.894 153.211 123.224 152.695C122.192 151.767 120.129 150.09 117.034 147.666C113.887 145.139 111.669 143.462 110.38 142.637Z" fill="white"/>
</svg>
