<svg width="152" height="210" viewBox="0 0 152 210" fill="none" xmlns="http://www.w3.org/2000/svg">
<path d="M145.707 62.9V62.9C119.75 62.9 98.707 83.9426 98.707 109.9V145.9H145.707V62.9Z" fill="#D10046"/>
<path d="M131.239 105.746C129.419 105.897 126.992 105.988 123.958 106.019C120.287 105.988 117.753 105.897 116.358 105.746C114.629 105.564 113.112 105.124 111.807 104.426C110.836 103.88 110.093 103.121 109.577 102.15C108.637 100.33 108.257 98.358 108.439 96.2343C108.5 95.7185 108.576 95.2027 108.667 94.687C109.122 92.4722 110.32 90.7428 112.262 89.4989C113.9 88.4674 115.675 87.8454 117.587 87.6331C121.895 87.1173 125.9 87.4207 129.601 88.5432C132.938 89.5748 135.487 91.3951 137.246 94.0043C138.642 96.0371 139.143 98.1305 138.748 100.285C138.384 102.499 137.125 104.062 134.971 104.972C134.091 105.366 132.847 105.624 131.239 105.746ZM117.359 101.468C118.482 101.559 120.742 101.619 124.14 101.65C127.022 101.619 129.1 101.559 130.375 101.468C131.406 101.407 132.149 101.316 132.605 101.195C133.181 101.073 133.606 100.861 133.879 100.558C134.152 100.224 134.288 99.7536 134.288 99.1468C134.319 98.1456 133.97 97.1444 133.242 96.1432C132.271 94.778 130.769 93.7313 128.736 93.0031C125.793 91.9109 122.608 91.5165 119.179 91.8199C117.541 91.9412 116.13 92.3508 114.947 93.0486C114.037 93.5947 113.476 94.2925 113.263 95.142C112.869 96.6287 112.869 98.0243 113.263 99.3289C113.506 100.178 114.007 100.724 114.765 100.967C115.524 101.21 116.388 101.377 117.359 101.468Z" fill="white"/>
<path d="M125.687 115.374C126.173 115.404 126.491 115.404 126.643 115.374C126.673 115.283 126.613 115.085 126.461 114.782C125.824 113.417 125.642 111.976 125.915 110.459C126.218 108.578 127.204 107.167 128.873 106.226C129.965 105.589 131.239 105.255 132.696 105.225C133.333 105.225 134.076 105.453 134.926 105.908C136.169 106.545 137.125 107.531 137.793 108.866C138.46 110.17 138.688 111.521 138.475 112.916C138.05 115.798 136.351 117.877 133.378 119.151C132.134 119.727 130.526 120.016 128.554 120.016C124.701 120.046 120.833 119.424 116.949 118.15C114.856 117.452 113.278 116.815 112.217 116.238C110.912 115.541 109.956 114.63 109.349 113.508C108.743 112.416 108.515 111.323 108.667 110.231C108.697 109.988 108.743 109.852 108.803 109.822C108.864 109.791 109.016 109.791 109.258 109.822C110.017 110.004 111.094 110.261 112.49 110.595C112.732 110.656 112.869 110.747 112.899 110.868C113.142 111.566 113.825 112.143 114.947 112.598C115.888 112.992 116.874 113.371 117.905 113.735C120.302 114.554 122.896 115.101 125.687 115.374ZM133.242 114.008C133.879 113.402 134.213 112.749 134.243 112.051C134.213 111.293 133.909 110.671 133.333 110.186C132.938 109.852 132.483 109.715 131.967 109.776C131.452 109.806 130.997 110.019 130.602 110.413C130.268 110.777 130.086 111.232 130.056 111.778C130.026 112.294 130.177 112.719 130.511 113.053C131.148 113.72 131.876 114.099 132.696 114.19C132.938 114.19 133.12 114.13 133.242 114.008Z" fill="white"/>
<path d="M112.808 125.467C112.323 125.163 111.959 124.966 111.716 124.875C111.595 125.482 111.519 126.119 111.488 126.786C111.397 128.576 111.367 129.851 111.397 130.609C111.397 130.822 111.397 130.973 111.397 131.064C111.397 131.125 111.367 131.186 111.306 131.246C111.246 131.307 111.185 131.337 111.124 131.337C111.033 131.337 110.882 131.337 110.669 131.337C109.456 131.368 108.652 131.383 108.257 131.383C108.015 131.413 107.863 131.398 107.802 131.337C107.742 131.277 107.711 131.14 107.711 130.928C107.681 128.015 107.817 125.664 108.121 123.874C108.242 123.237 108.424 122.66 108.667 122.145C109.031 121.416 109.623 120.946 110.442 120.734C111.686 120.37 112.869 120.521 113.991 121.189C114.416 121.432 115.159 121.978 116.221 122.827C116.616 123.131 117.177 123.586 117.905 124.192C118.633 124.769 119.088 125.148 119.27 125.33C119.574 125.573 119.801 125.709 119.953 125.74C120.347 124.708 120.863 123.753 121.5 122.873C122.896 120.961 124.656 119.717 126.779 119.141C128.903 118.534 130.966 118.61 132.969 119.368C134.941 120.097 136.503 121.31 137.656 123.009C138.839 124.769 139.31 126.62 139.067 128.561C138.945 129.532 138.566 130.457 137.929 131.337C137.747 131.58 137.55 131.595 137.337 131.383C136.64 130.685 135.881 129.957 135.062 129.198C134.88 129.016 134.85 128.804 134.971 128.561C135.214 128.106 135.259 127.545 135.108 126.877C134.804 125.573 134.046 124.556 132.832 123.828C130.921 122.706 129.055 122.524 127.235 123.282C125.384 124.041 124.17 125.452 123.594 127.515C123.381 128.182 123.275 129.047 123.275 130.109C123.306 130.564 123.108 130.867 122.684 131.019C122.289 131.14 121.925 131.292 121.591 131.474C121.167 131.717 120.757 131.686 120.363 131.383C119.756 130.837 118.542 129.851 116.722 128.425C114.871 126.938 113.567 125.952 112.808 125.467Z" fill="white"/>
<path d="M151.67 162.83C151.67 165.369 151.442 167.68 150.986 169.763C150.563 171.814 149.88 173.702 148.936 175.427C147.992 177.153 146.771 178.748 145.273 180.213C143.776 181.677 141.969 183.077 139.854 184.412L151.475 205.115L129.502 209.412L121.982 188.611L115.928 188.806L115.049 209.119H94.0527C94.2155 201.697 94.362 194.308 94.4922 186.951C94.6549 179.594 94.834 172.205 95.0293 164.783C95.0944 161.039 95.1595 157.328 95.2246 153.65C95.2897 149.972 95.4199 146.261 95.6152 142.517C97.8939 141.671 100.14 140.971 102.354 140.418C104.567 139.864 106.781 139.441 108.994 139.148C111.24 138.823 113.503 138.611 115.781 138.513C118.092 138.383 120.452 138.318 122.861 138.318C126.572 138.318 130.153 138.839 133.604 139.88C137.087 140.89 140.163 142.42 142.832 144.47C145.501 146.521 147.633 149.076 149.229 152.136C150.856 155.196 151.67 158.761 151.67 162.83ZM129.795 164.392C129.795 163.025 129.6 161.772 129.209 160.632C128.851 159.493 128.298 158.517 127.549 157.703C126.833 156.856 125.921 156.205 124.814 155.75C123.74 155.261 122.471 155.017 121.006 155.017C120.355 155.017 119.72 155.066 119.102 155.164C118.483 155.229 117.881 155.343 117.295 155.505L116.514 173.67H117.686C119.085 173.67 120.501 173.491 121.934 173.132C123.398 172.774 124.701 172.221 125.84 171.472C127.012 170.724 127.956 169.763 128.672 168.591C129.421 167.42 129.795 166.02 129.795 164.392Z" fill="#212121"/>
<path d="M97.7344 139.49C97.5391 142.55 97.36 145.577 97.1973 148.572C97.0345 151.567 96.8229 154.594 96.5625 157.654L75.8594 158.728L75.3711 164.88H89.9219L88.8477 180.017L74.1992 180.505L73.7109 187.634H85.8203H94.4141C94.2188 191.215 94.0072 194.78 93.7793 198.328C93.584 201.843 93.4049 205.375 93.2422 208.923L51.1523 209.9L52.7148 139.49H97.7344Z" fill="#212121"/>
<path d="M53.8086 140.076L53.3203 160.779L38.7695 161.365L35.0586 207.654L14.4531 208.728L14.5508 162.439L0 163.22L0.585938 140.173L53.8086 140.076Z" fill="#212121"/>
<path d="M70.957 57.5758C72.4219 58.0641 73.3333 58.9755 73.6914 60.3102L72.2754 70.4176V105.476H74.2773C85.0846 86.5634 90.4883 73.5426 90.4883 66.4137C92.4089 64.5908 94.1992 63.6793 95.8594 63.6793L98.5938 67.0973C95.4362 71.4267 88.2259 85.831 76.9629 110.31V112.312C80.8366 128.979 86.0449 137.312 92.5879 137.312V139.998L89.1699 140.584C83.7663 140.584 78.3626 132.722 72.959 117H72.2754L68.8574 146.004L68.2715 146.687H65.5859C64.4466 146.687 63.7467 145.792 63.4863 144.002C65.0814 144.002 66.6764 128.263 68.2715 96.7848L67.5879 59.5777L70.957 57.5758Z" fill="#212121"/>
<path d="M54.9121 56.8922C59.7624 57.0224 62.2852 79.4182 62.4805 124.08L64.5801 145.711L61.2109 146.296H59.7949L57.793 144.295V119.295L57.1094 109.187H56.4746C45.6999 110.522 39.8079 112.8 38.7988 116.023C37.0736 132.397 35.7715 140.681 34.8926 140.877H32.207L29.4727 138.191C31.6862 121.069 35.2995 102.172 40.3125 81.5016C43.763 64.4443 48.6296 56.2412 54.9121 56.8922ZM40.9961 104.5L44.3164 107.088C53.3008 105.102 57.793 103.572 57.793 102.498V90.2906L58.4766 81.5016L56.8164 74.7145C55.5469 69.3108 54.2122 66.609 52.8125 66.609C49.9479 66.609 46.0091 79.2392 40.9961 104.5Z" fill="#212121"/>
<path d="M22.998 63.3863H25.6836C29.6875 63.3863 31.6895 66.5602 31.6895 72.9078C27.9134 85.831 21.6146 95.2548 12.793 101.179V103.279C21.0612 127.823 27.1647 141.332 31.1035 143.806L33.7891 144.392V147.078L30.4199 149.812C27.6204 149.812 23.112 141.511 16.8945 124.91L9.52148 108.015H7.42188V108.699L8.20312 120.076C8.20312 133.162 7.03125 139.705 4.6875 139.705H2.7832C1.74154 139.705 1.04167 138.565 0.683594 136.287L2.7832 129.597L4.10156 81.0133C1.82292 81.0133 0.683594 80.1018 0.683594 78.2789C2.50651 75.5445 3.41797 73.5263 3.41797 72.2242V66.8043L5.51758 64.8023H6.10352L10.8887 66.1207L22.998 63.3863ZM8.78906 73.5914L8.20312 91.8043V96.4918L9.52148 97.9078H10.8887C21.1751 88.8258 26.3184 80.7203 26.3184 73.5914V70.2223L23.584 67.4879H22.998C17.9525 67.4879 13.2161 69.5224 8.78906 73.5914Z" fill="#212121"/>
<path d="M54.2031 69.9V69.1C56.2031 69.1 58.0365 68.2333 59.7031 66.5C61.3698 64.7667 62.5698 62.6333 63.3031 60.1L79.8031 0H84.3031L102.803 62.9C103.203 64.4333 104.103 65.8667 105.503 67.2C106.903 68.4667 108.736 69.1 111.003 69.1V69.9H80.6031V69.1C85.0031 69.1 88.0698 68.6 89.8031 67.6C91.5365 66.5333 92.1031 64.9667 91.5031 62.9L85.5031 42.6H69.3031L64.5031 60.3C64.1031 61.6333 64.1698 62.8667 64.7031 64C65.3031 65.0667 66.1365 66 67.2031 66.8C68.3365 67.5333 69.5698 68.1 70.9031 68.5C72.3031 68.9 73.6365 69.1 74.9031 69.1V69.9H54.2031ZM85.3031 41.6L77.0031 14L69.5031 41.6H85.3031Z" fill="#212121"/>
<path d="M1.70703 69.1C3.64036 69.1 5.24036 68.6333 6.50703 67.7C7.84036 66.7 8.50703 64.7333 8.50703 61.8V8.1C8.50703 5.16667 7.84036 3.23333 6.50703 2.3C5.24036 1.3 3.64036 0.800002 1.70703 0.800002V0H26.207V0.800002C24.207 0.800002 22.5737 1.3 21.307 2.3C20.0404 3.23333 19.407 5.16667 19.407 8.1V34.5L37.207 8.80001C39.207 5.86667 39.7737 3.8 38.907 2.6C38.0404 1.4 35.7737 0.800002 32.107 0.800002V0H53.107V0.800002C52.0404 0.800002 50.907 0.933335 49.707 1.2C48.507 1.4 47.2737 1.80001 46.007 2.40001C44.807 3.00001 43.5737 3.8 42.307 4.8C41.107 5.8 39.9404 7.1 38.807 8.7L28.307 23.7L46.907 61.6C48.2404 64.2667 49.7737 66.2 51.507 67.4C53.307 68.5333 55.1737 69.1 57.107 69.1V69.9H27.107V69.1C28.3737 69.1 29.5737 68.9333 30.707 68.6C31.907 68.2 32.8737 67.6333 33.607 66.9C34.407 66.1667 34.907 65.3 35.107 64.3C35.3737 63.2333 35.207 62.0667 34.607 60.8L21.407 33.6L19.407 36.4V61.8C19.407 64.7333 20.0404 66.7 21.307 67.7C22.5737 68.6333 24.207 69.1 26.207 69.1V69.9H1.70703V69.1Z" fill="#212121"/>
</svg>
