<svg width="152" height="210" viewBox="0 0 152 210" fill="none" xmlns="http://www.w3.org/2000/svg">
<path d="M151.67 162.83C151.67 165.369 151.442 167.68 150.986 169.763C150.563 171.814 149.88 173.702 148.936 175.427C147.992 177.153 146.771 178.748 145.273 180.213C143.776 181.677 141.969 183.077 139.854 184.412L151.475 205.115L129.502 209.412L121.982 188.611L115.928 188.806L115.049 209.119H94.0527C94.2155 201.697 94.362 194.308 94.4922 186.951C94.6549 179.594 94.834 172.205 95.0293 164.783C95.0944 161.039 95.1595 157.328 95.2246 153.65C95.2897 149.972 95.4199 146.261 95.6152 142.517C97.8939 141.671 100.14 140.971 102.354 140.418C104.567 139.864 106.781 139.441 108.994 139.148C111.24 138.823 113.503 138.611 115.781 138.513C118.092 138.383 120.452 138.318 122.861 138.318C126.572 138.318 130.153 138.839 133.604 139.88C137.087 140.89 140.163 142.42 142.832 144.47C145.501 146.521 147.633 149.076 149.229 152.136C150.856 155.196 151.67 158.761 151.67 162.83ZM129.795 164.392C129.795 163.025 129.6 161.772 129.209 160.632C128.851 159.493 128.298 158.517 127.549 157.703C126.833 156.856 125.921 156.205 124.814 155.75C123.74 155.261 122.471 155.017 121.006 155.017C120.355 155.017 119.72 155.066 119.102 155.164C118.483 155.229 117.881 155.343 117.295 155.505L116.514 173.67H117.686C119.085 173.67 120.501 173.491 121.934 173.132C123.398 172.774 124.701 172.221 125.84 171.472C127.012 170.724 127.956 169.763 128.672 168.591C129.421 167.42 129.795 166.02 129.795 164.392Z" fill="white"/>
<path d="M97.7344 139.49C97.5391 142.55 97.36 145.577 97.1973 148.572C97.0345 151.567 96.8229 154.594 96.5625 157.654L75.8594 158.728L75.3711 164.88H89.9219L88.8477 180.017L74.1992 180.505L73.7109 187.634H85.8203H94.4141C94.2188 191.215 94.0072 194.78 93.7793 198.328C93.584 201.843 93.4049 205.375 93.2422 208.923L51.1523 209.9L52.7148 139.49H97.7344Z" fill="white"/>
<path d="M53.8086 140.076L53.3203 160.779L38.7695 161.365L35.0586 207.654L14.4531 208.728L14.5508 162.439L0 163.22L0.585938 140.173L53.8086 140.076Z" fill="white"/>
<path d="M70.957 57.5758C72.4219 58.0641 73.3333 58.9755 73.6914 60.3102L72.2754 70.4176V105.476H74.2773C85.0846 86.5634 90.4883 73.5426 90.4883 66.4137C92.4089 64.5908 94.1992 63.6793 95.8594 63.6793L98.5938 67.0973C95.4362 71.4267 88.2259 85.831 76.9629 110.31V112.312C80.8366 128.979 86.0449 137.312 92.5879 137.312V139.998L89.1699 140.584C83.7663 140.584 78.3626 132.722 72.959 117H72.2754L68.8574 146.004L68.2715 146.687H65.5859C64.4466 146.687 63.7467 145.792 63.4863 144.002C65.0814 144.002 66.6764 128.263 68.2715 96.7848L67.5879 59.5777L70.957 57.5758Z" fill="white"/>
<path d="M54.9121 56.8922C59.7624 57.0224 62.2852 79.4182 62.4805 124.08L64.5801 145.711L61.2109 146.296H59.7949L57.793 144.295V119.295L57.1094 109.187H56.4746C45.6999 110.522 39.8079 112.8 38.7988 116.023C37.0736 132.397 35.7715 140.681 34.8926 140.877H32.207L29.4727 138.191C31.6862 121.069 35.2995 102.172 40.3125 81.5016C43.763 64.4443 48.6296 56.2412 54.9121 56.8922ZM40.9961 104.5L44.3164 107.088C53.3008 105.102 57.793 103.572 57.793 102.498V90.2906L58.4766 81.5016L56.8164 74.7145C55.5469 69.3108 54.2122 66.609 52.8125 66.609C49.9479 66.609 46.0091 79.2392 40.9961 104.5Z" fill="white"/>
<path d="M22.998 63.3863H25.6836C29.6875 63.3863 31.6895 66.5602 31.6895 72.9078C27.9134 85.831 21.6146 95.2548 12.793 101.179V103.279C21.0612 127.823 27.1647 141.332 31.1035 143.806L33.7891 144.392V147.078L30.4199 149.812C27.6204 149.812 23.112 141.511 16.8945 124.91L9.52148 108.015H7.42188V108.699L8.20312 120.076C8.20312 133.162 7.03125 139.705 4.6875 139.705H2.7832C1.74154 139.705 1.04167 138.565 0.683594 136.287L2.7832 129.597L4.10156 81.0133C1.82292 81.0133 0.683594 80.1018 0.683594 78.2789C2.50651 75.5445 3.41797 73.5263 3.41797 72.2242V66.8043L5.51758 64.8023H6.10352L10.8887 66.1207L22.998 63.3863ZM8.78906 73.5914L8.20312 91.8043V96.4918L9.52148 97.9078H10.8887C21.1751 88.8258 26.3184 80.7203 26.3184 73.5914V70.2223L23.584 67.4879H22.998C17.9525 67.4879 13.2161 69.5224 8.78906 73.5914Z" fill="white"/>
<path d="M54.2031 69.9V69.1C56.2031 69.1 58.0365 68.2333 59.7031 66.5C61.3698 64.7667 62.5698 62.6333 63.3031 60.1L79.8031 0H84.3031L102.803 62.9C103.203 64.4333 104.103 65.8667 105.503 67.2C106.903 68.4667 108.736 69.1 111.003 69.1V69.9H80.6031V69.1C85.0031 69.1 88.0698 68.6 89.8031 67.6C91.5365 66.5333 92.1031 64.9667 91.5031 62.9L85.5031 42.6H69.3031L64.5031 60.3C64.1031 61.6333 64.1698 62.8667 64.7031 64C65.3031 65.0667 66.1365 66 67.2031 66.8C68.3365 67.5333 69.5698 68.1 70.9031 68.5C72.3031 68.9 73.6365 69.1 74.9031 69.1V69.9H54.2031ZM85.3031 41.6L77.0031 14L69.5031 41.6H85.3031Z" fill="white"/>
<path d="M1.70703 69.1C3.64036 69.1 5.24036 68.6333 6.50703 67.7C7.84036 66.7 8.50703 64.7333 8.50703 61.8V8.1C8.50703 5.16667 7.84036 3.23333 6.50703 2.3C5.24036 1.3 3.64036 0.800002 1.70703 0.800002V0H26.207V0.800002C24.207 0.800002 22.5737 1.3 21.307 2.3C20.0404 3.23333 19.407 5.16667 19.407 8.1V34.5L37.207 8.80001C39.207 5.86667 39.7737 3.8 38.907 2.6C38.0404 1.4 35.7737 0.800002 32.107 0.800002V0H53.107V0.800002C52.0404 0.800002 50.907 0.933335 49.707 1.2C48.507 1.4 47.2737 1.80001 46.007 2.40001C44.807 3.00001 43.5737 3.8 42.307 4.8C41.107 5.8 39.9404 7.1 38.807 8.7L28.307 23.7L46.907 61.6C48.2404 64.2667 49.7737 66.2 51.507 67.4C53.307 68.5333 55.1737 69.1 57.107 69.1V69.9H27.107V69.1C28.3737 69.1 29.5737 68.9333 30.707 68.6C31.907 68.2 32.8737 67.6333 33.607 66.9C34.407 66.1667 34.907 65.3 35.107 64.3C35.3737 63.2333 35.207 62.0667 34.607 60.8L21.407 33.6L19.407 36.4V61.8C19.407 64.7333 20.0404 66.7 21.307 67.7C22.5737 68.6333 24.207 69.1 26.207 69.1V69.9H1.70703V69.1Z" fill="white"/>
</svg>
