<svg width="100" height="100" viewBox="0 0 100 100" fill="none" xmlns="http://www.w3.org/2000/svg">
<g clip-path="url(#clip0_1687_47)">
<path d="M77.2333 15.6H84.4V22.7667C84.4 23.6267 84.9733 24.2 85.8333 24.2C86.6933 24.2 87.2665 23.6267 87.2665 22.7667V14.1667C87.2665 13.3067 86.6933 12.7335 85.8333 12.7335H77.2333C76.3733 12.7335 75.8 13.3067 75.8 14.1667C75.8 15.0267 76.3733 15.6 77.2333 15.6Z" fill="black"/>
<path d="M22.7667 84.4H15.6V77.2333C15.6 76.3733 15.0267 75.8 14.1667 75.8C13.3067 75.8 12.7334 76.3733 12.7334 77.2333V85.8333C12.7334 86.6933 13.3067 87.2665 14.1667 87.2665H22.7667C23.6267 87.2665 24.2 86.6933 24.2 85.8333C24.2 84.9733 23.6267 84.4 22.7667 84.4Z" fill="black"/>
<path d="M22.7667 12.7333H14.1667C13.3067 12.7333 12.7334 13.3066 12.7334 14.1666V22.7666C12.7334 23.6266 13.3067 24.1998 14.1667 24.1998C15.0267 24.1998 15.6 23.6266 15.6 22.7666V15.6H22.7667C23.6267 15.6 24.2 15.0267 24.2 14.1667C24.2 13.3067 23.6267 12.7333 22.7667 12.7333Z" fill="black"/>
<path d="M85.8333 75.8C84.9733 75.8 84.4 76.3733 84.4 77.2333V84.4H77.2333C76.3733 84.4 75.8 84.9733 75.8 85.8333C75.8 86.6933 76.3733 87.2665 77.2333 87.2665H85.8333C86.6933 87.2665 87.2665 86.6933 87.2665 85.8333V77.2333C87.2667 76.3733 86.6933 75.8 85.8333 75.8Z" fill="black"/>
<path d="M21.3333 50C21.3333 49.14 20.76 48.5667 19.9 48.5667H8.43328C7.57328 48.5667 7 49.14 7 50C7 50.86 7.57328 51.4333 8.43328 51.4333H19.9C20.76 51.4333 21.3333 50.86 21.3333 50Z" fill="black"/>
<path d="M91.5667 48.5667H80.1C79.24 48.5667 78.6667 49.14 78.6667 50C78.6667 50.86 79.24 51.4333 80.1 51.4333H91.5667C92.4267 51.4333 93 50.86 93 50C93 49.14 92.4267 48.5667 91.5667 48.5667Z" fill="black"/>
<path d="M50 78.6667C49.14 78.6667 48.5667 79.24 48.5667 80.1V91.5668C48.5667 92.4268 49.14 93 50 93C50.86 93 51.4333 92.4268 51.4333 91.5668V80.1C51.4333 79.24 50.86 78.6667 50 78.6667Z" fill="black"/>
<path d="M50 21.3333C50.86 21.3333 51.4333 20.76 51.4333 19.9V8.43328C51.4333 7.57328 50.86 7 50 7C49.14 7 48.5667 7.57328 48.5667 8.43328V19.9C48.5667 20.76 49.14 21.3333 50 21.3333Z" fill="black"/>
<path d="M60.0333 48.5667H51.4333V39.9667C51.4333 39.1067 50.86 38.5334 50 38.5334C49.14 38.5334 48.5667 39.1067 48.5667 39.9667V48.5667H39.9667C39.1067 48.5667 38.5334 49.14 38.5334 50C38.5334 50.86 39.1067 51.4333 39.9667 51.4333H48.5667V60.0333C48.5667 60.8933 49.14 61.4666 50 61.4666C50.86 61.4666 51.4333 60.8933 51.4333 60.0333V51.4333H60.0333C60.8933 51.4333 61.4666 50.86 61.4666 50C61.4666 49.14 60.8933 48.5667 60.0333 48.5667Z" fill="black"/>
</g>
<defs>
<clipPath id="clip0_1687_47">
<rect width="86" height="86" fill="white" transform="translate(7 7)"/>
</clipPath>
</defs>
</svg>
