<svg width="100" height="100" viewBox="0 0 100 100" fill="none" xmlns="http://www.w3.org/2000/svg">
<path d="M79.984 22.7929L70.5779 33.247L66.943 29.6121L65.1534 31.4017L70.6766 36.9249L81.8698 24.4889L79.984 22.7929Z" fill="black"/>
<path d="M32.6192 63.8979L23.2106 74.352L19.5757 70.7171L17.7861 72.5067L23.3093 78.0299L34.5025 65.5938L32.6192 63.8979Z" fill="black"/>
<path d="M74.1849 13.1312C65.3255 13.1312 58.0836 19.9858 57.4331 28.6806H25.552V54.302C16.8572 54.95 10 62.1919 10 71.0538C10 80.3409 17.5279 87.8689 26.8151 87.8689C35.6745 87.8689 42.9164 81.0142 43.5669 72.3194H75.448V46.6981C84.1428 46.0501 91 38.8082 91 29.9463C91 20.6591 83.4721 13.1312 74.1849 13.1312ZM26.8151 85.3351C18.9404 85.3351 12.5312 78.9285 12.5312 71.0538C12.5312 63.179 18.9404 56.7674 26.8151 56.7674C34.6923 56.7674 41.0989 63.1765 41.0989 71.0512C41.0989 78.926 34.6898 85.3351 26.8151 85.3351ZM72.9168 69.7907H43.5694C42.9518 61.516 36.3579 54.9221 28.0833 54.302V31.2119H57.4306C58.0482 39.4865 64.6421 46.0804 72.9168 46.7006V69.7907ZM74.1849 44.2301C66.3102 44.2301 59.9011 37.821 59.9011 29.9463C59.9011 22.0715 66.3077 15.6624 74.1849 15.6624C82.0596 15.6624 88.4688 22.0715 88.4688 29.9463C88.4688 37.821 82.0596 44.2301 74.1849 44.2301Z" fill="black"/>
</svg>
