<svg width="94" height="100" viewBox="0 0 94 100" fill="none" xmlns="http://www.w3.org/2000/svg">
<g clip-path="url(#clip0_1686_15)">
<path fill-rule="evenodd" clip-rule="evenodd" d="M0 0H93.2773V59.4538H92.0168V1.2605H1.2605V98.5294H32.9832V99.7899H0V0Z" fill="#8A8A8A"/>
<path d="M79.8719 99.7731C74.884 99.7731 69.8962 98.316 67.2059 96.4105L69.8962 91.0865C72.5298 92.8239 76.5651 94.0567 80.3202 94.0567C84.7475 94.0567 86.5966 92.8239 86.5966 90.75C86.5966 85.0336 68.1025 90.4139 68.1025 78.4769C68.1025 72.8164 73.2025 69.1176 81.2727 69.1176C85.2517 69.1176 89.7912 70.0702 92.4811 71.6958L89.7912 77.0197C86.9332 75.3382 84.0748 74.7781 81.2168 74.7781C76.9576 74.7781 74.9399 76.179 74.9399 78.1408C74.9399 84.1933 93.434 78.813 93.434 90.526C93.434 96.1302 88.2782 99.7731 79.8719 99.7731Z" fill="#8A8A8A"/>
<path d="M49.6966 69.1176C58.3273 69.1176 63.3151 73.2088 63.3151 81.8395V99.3807H56.7021V95.7378C55.021 98.316 51.7706 99.7731 47.287 99.7731C40.4498 99.7731 36.1345 96.0181 36.1345 90.8063C36.1345 85.8185 39.497 81.8954 48.5761 81.8954H56.3101V81.4471C56.3101 77.3559 53.8441 74.9462 48.8563 74.9462C45.4937 74.9462 42.0189 76.0668 39.7772 77.9164L37.0311 72.8164C40.2256 70.3504 44.8773 69.1176 49.6966 69.1176ZM48.7441 94.6731C52.1626 94.6731 55.1332 93.1042 56.3101 90.0214V86.5471H49.0803C44.3168 86.5471 43.0277 88.3403 43.0277 90.526C43.0277 93.0479 45.1576 94.6731 48.7441 94.6731Z" fill="#8A8A8A"/>
</g>
<defs>
<clipPath id="clip0_1686_15">
<rect width="93.6975" height="100" fill="white"/>
</clipPath>
</defs>
</svg>
