<svg width="100" height="100" viewBox="0 0 100 100" fill="none" xmlns="http://www.w3.org/2000/svg">
<g clip-path="url(#clip0_1687_8)">
<path d="M49.4384 37.1097C49.2775 36.6258 48.8254 36.3003 48.3155 36.3003C47.8055 36.3003 47.3535 36.6256 47.1926 37.1097C46.3039 39.7781 43.6841 39.8491 43.5822 39.8502C42.9291 39.8502 42.3989 40.3804 42.3989 41.0335V45.7668C42.3989 49.719 45.1004 55.2333 49.4988 55.2333C53.8983 55.2333 56.5986 49.7191 56.5986 45.7668V41.0335C56.5986 40.3804 56.0697 39.8502 55.4153 39.8502C55.3643 39.8502 50.327 39.7758 49.4384 37.1097ZM54.2319 45.7668C54.2319 48.983 52.1208 52.8666 49.4986 52.8666C46.8765 52.8666 44.7654 48.983 44.7654 45.7668V42.0724C45.925 41.8097 47.3544 41.1494 48.4052 39.8052C50.063 41.4631 52.7064 41.9814 54.2317 42.1435V45.7668H54.2319Z" fill="black"/>
<path d="M19.8095 39.8456C19.845 39.8491 19.8816 39.8503 19.9172 39.8503C20.5231 39.8503 21.039 39.3889 21.0947 38.7735L22.278 25.7607C22.5418 22.9443 26.3273 19.7341 29.3826 19.7341H31.7492C34.8637 19.7341 38.648 22.9314 38.8527 25.7417L39.0348 28.1083C39.0857 28.7604 39.6525 29.2514 40.3057 29.197C40.9577 29.1474 41.4452 28.5781 41.3944 27.9262L41.2133 25.5643C40.8961 21.2275 35.6577 17.3676 31.7492 17.3676H29.3825C25.0752 17.3676 20.3007 21.4925 19.9208 25.5443L18.7375 38.5607C18.6783 39.2112 19.1576 39.7864 19.8095 39.8456Z" fill="black"/>
<path d="M58.6942 29.197C59.3296 29.2431 59.9142 28.7592 59.9638 28.1083L60.1437 25.7607C60.4075 22.9443 64.1917 19.7341 67.2482 19.7341H69.6148C72.7292 19.7341 76.5135 22.9314 76.7194 25.7571L77.9027 38.7735C77.9596 39.3889 78.4742 39.8503 79.0802 39.8503C79.1156 39.8503 79.1523 39.8491 79.189 39.8456C79.8398 39.7864 80.319 39.2114 80.2599 38.5605L79.0779 25.5643C78.7619 21.2275 73.5235 17.3676 69.6149 17.3676H67.2483C62.941 17.3676 58.1665 21.4925 57.7854 25.5597L57.6043 27.9263C57.5546 28.5781 58.0421 29.1472 58.6942 29.197Z" fill="black"/>
<path d="M37.6692 52.7756C37.6183 53.4276 38.1071 53.9968 38.7579 54.0464C39.3933 54.0973 39.9791 53.6086 40.0287 52.9577L41.2108 37.5936C41.4747 34.7773 45.2589 31.567 48.3155 31.567H50.6821C53.7965 31.567 57.5808 34.7644 57.7855 37.5747L58.9688 52.9577C59.0161 53.5777 59.5344 54.0499 60.1473 54.0499C60.1769 54.0499 60.2088 54.0487 60.2397 54.0464C60.8905 53.9968 61.378 53.4275 61.3283 52.7756L60.145 37.3973C59.8291 33.0604 54.5906 29.2006 50.6821 29.2006H48.3155C44.0082 29.2006 39.2336 33.3255 38.8525 37.3926L37.6692 52.7756Z" fill="black"/>
<path d="M68.37 25.2767C68.2091 24.7928 67.7583 24.4673 67.2482 24.4673C66.7382 24.4673 66.2862 24.7927 66.1263 25.2767C65.2365 27.9451 62.6179 28.016 62.5149 28.0172C61.8605 28.0172 61.3316 28.5474 61.3316 29.2006V33.9338C61.3316 37.886 64.0319 43.4003 68.4315 43.4003C72.831 43.4003 75.5313 37.8861 75.5313 33.9338V29.2006C75.5313 28.5474 75.0024 28.0172 74.348 28.0172C74.2972 28.0172 69.2598 27.9427 68.37 25.2767ZM73.1648 33.9338C73.1648 37.1501 71.0538 41.0337 68.4316 41.0337C65.8095 41.0337 63.6984 37.1501 63.6984 33.9338V30.2395C64.8569 29.9767 66.2886 29.3165 67.3382 27.9722C68.996 29.6301 71.6394 30.1484 73.1647 30.3105L73.1648 33.9338Z" fill="black"/>
<path d="M38.849 67.0663C38.1958 67.0663 37.6657 67.5965 37.6657 68.2497V82.4492C37.6657 83.1024 38.1958 83.6326 38.849 83.6326C39.5021 83.6326 40.0323 83.1024 40.0323 82.4492V68.2497C40.0323 67.5964 39.5021 67.0663 38.849 67.0663Z" fill="black"/>
<path d="M55.4506 55.2474C54.7927 55.251 54.2354 55.7645 54.2319 56.4272C54.2307 56.6686 54.1491 62.3331 49.4986 62.3331C44.8494 62.3331 44.7666 56.6698 44.7654 56.432C44.7654 55.7788 44.2365 55.2499 43.5844 55.2487C39.2949 55.296 35.7935 56.4639 33.4683 58.7844C31.5963 60.6529 30.5657 63.1734 30.5657 65.883V80.0828C30.5657 80.7359 31.0958 81.2661 31.749 81.2661C32.4021 81.2661 32.9323 80.7359 32.9323 80.0828V65.883C32.9323 63.8063 33.7168 61.8799 35.1391 60.46C36.8182 58.7832 39.3399 57.8189 42.478 57.6449C42.8164 60.3393 44.3216 63.9933 48.3152 64.6027V70.6162C48.3152 71.2693 48.8453 71.7995 49.4985 71.7995C50.1517 71.7995 50.6818 71.2693 50.6818 70.6162V64.6027C54.6754 63.9933 56.1807 60.3392 56.519 57.6436C59.6571 57.8187 62.1788 58.7832 63.8579 60.46C65.2815 61.8811 66.0647 63.8063 66.0647 65.883V80.0828C66.0647 80.7359 66.5936 81.2661 67.248 81.2661C67.9024 81.2661 68.4313 80.7359 68.4313 80.0828V65.883C68.4313 63.1734 67.4007 60.6528 65.5299 58.7856C63.2109 56.4697 59.7272 55.2474 55.4506 55.2474Z" fill="black"/>
<path d="M79.0813 55.2333C78.4269 55.2333 77.898 55.7634 77.898 56.4166V70.6162C77.898 71.2693 78.4269 71.7995 79.0813 71.7995C79.7356 71.7995 80.2646 71.2693 80.2646 70.6162V56.4166C80.2646 55.7634 79.7356 55.2333 79.0813 55.2333Z" fill="black"/>
<path d="M84.6783 47.1726C83.0632 45.4568 79.9664 43.4145 74.3812 43.4145C73.722 43.4286 73.1683 43.9328 73.1647 44.5942C73.1635 44.8356 73.0819 50.5001 68.4315 50.5001C67.0435 50.5001 65.9832 50.0433 65.1916 49.1038C64.7692 48.6045 64.0225 48.5405 63.5231 48.9619C63.025 49.3843 62.9611 50.1298 63.3812 50.6291C64.3716 51.8041 65.6957 52.5248 67.2483 52.7686V56.4167C67.2483 57.0698 67.7772 57.6 68.4316 57.6C69.086 57.6 69.6149 57.0698 69.6149 56.4167V52.7698C73.6086 52.1604 75.1126 48.5063 75.4521 45.8108C78.7003 45.9919 81.2787 47.0143 82.9542 48.7951C83.4039 49.2709 84.1529 49.2909 84.6275 48.8449C85.1043 48.3972 85.1257 47.6482 84.6783 47.1726Z" fill="black"/>
<path d="M19.916 55.2333C19.2629 55.2333 18.7327 55.7634 18.7327 56.4166V70.6162C18.7327 71.2693 19.2629 71.7995 19.916 71.7995C20.5692 71.7995 21.0993 71.2693 21.0993 70.6162V56.4166C21.0993 55.7634 20.5692 55.2333 19.916 55.2333Z" fill="black"/>
<path d="M30.5054 25.2767C30.3433 24.7928 29.8925 24.4673 29.3825 24.4673C28.8725 24.4673 28.4216 24.7927 28.2596 25.2767C27.3709 27.9451 24.7511 28.016 24.6494 28.0172C23.9962 28.0172 23.4661 28.5474 23.4661 29.2006V33.9338C23.4661 37.886 26.1676 43.4003 30.5659 43.4003C34.9643 43.4003 37.6658 37.8861 37.6658 33.9338V29.2006C37.6658 28.5474 37.1356 28.0172 36.4825 28.0172C36.4315 28.0172 31.394 27.9427 30.5054 25.2767ZM35.299 33.9338C35.299 37.1501 33.188 41.0337 30.5658 41.0337C27.9436 41.0337 25.8326 37.1501 25.8326 33.9338V30.2395C26.9921 29.9767 28.4216 29.3165 29.4723 27.9722C31.1302 29.6301 33.7725 30.1484 35.2989 30.3105L35.299 33.9338Z" fill="black"/>
<path d="M31.7491 56.4165V52.772C33.2792 52.5388 34.5607 51.849 35.5617 50.6953C35.9889 50.2007 35.9356 49.454 35.4422 49.0256C34.9476 48.5973 34.1997 48.6517 33.7725 49.145C32.9821 50.0574 31.9336 50.4999 30.5658 50.4999C25.9166 50.4999 25.8338 44.8365 25.8326 44.5987C25.8313 43.9314 25.229 43.4166 24.6102 43.4154C19.0309 43.4154 15.9367 45.4565 14.3214 47.1723C13.8741 47.6481 13.8966 48.3971 14.3712 48.8443C14.8469 49.2905 15.5959 49.2703 16.0444 48.7946C17.7212 47.0137 20.2996 45.9913 23.5454 45.8103C23.8839 48.5058 25.389 52.1599 29.3826 52.7693V56.4161C29.3826 57.0693 29.9128 57.5995 30.5659 57.5995C31.219 57.5999 31.7491 57.0697 31.7491 56.4165Z" fill="black"/>
<path d="M60.1484 67.0663C59.4941 67.0663 58.9651 67.5965 58.9651 68.2497V82.4492C58.9651 83.1024 59.4941 83.6326 60.1484 83.6326C60.8028 83.6326 61.3317 83.1024 61.3317 82.4492V68.2497C61.3317 67.5964 60.8028 67.0663 60.1484 67.0663Z" fill="black"/>
</g>
<defs>
<clipPath id="clip0_1687_8">
<rect width="71" height="71" fill="white" transform="translate(14 15)"/>
</clipPath>
</defs>
</svg>
