<svg width="223" height="238" viewBox="0 0 223 238" fill="none" xmlns="http://www.w3.org/2000/svg">
<g clip-path="url(#clip0_1686_15)">
<path fill-rule="evenodd" clip-rule="evenodd" d="M0 0H222V141.5H219V3H3V234.5H78.5V237.5H0V0Z" fill="white"/>
<path d="M190.095 237.46C178.224 237.46 166.353 233.992 159.95 229.457L166.353 216.786C172.621 220.921 182.225 223.855 191.162 223.855C201.699 223.855 206.1 220.921 206.1 215.985C206.1 202.38 162.084 215.185 162.084 186.775C162.084 173.303 174.222 164.5 193.429 164.5C202.899 164.5 213.703 166.767 220.105 170.636L213.703 183.307C206.901 179.305 200.098 177.972 193.296 177.972C183.159 177.972 178.357 181.306 178.357 185.975C178.357 200.38 222.373 187.575 222.373 215.452C222.373 228.79 210.102 237.46 190.095 237.46Z" fill="white"/>
<path d="M118.278 164.5C138.819 164.5 150.69 174.237 150.69 194.778V236.526H134.951V227.856C130.95 233.992 123.214 237.46 112.543 237.46C96.2704 237.46 86 228.523 86 216.119C86 204.248 94.0029 194.911 115.611 194.911H134.018V193.844C134.018 184.107 128.149 178.372 116.278 178.372C108.275 178.372 100.005 181.039 94.6698 185.441L88.1341 173.303C95.7369 167.434 106.808 164.5 118.278 164.5ZM116.011 225.322C124.147 225.322 131.217 221.588 134.018 214.251V205.982H116.811C105.474 205.982 102.406 210.25 102.406 215.452C102.406 221.454 107.475 225.322 116.011 225.322Z" fill="white"/>
</g>
<defs>
<clipPath id="clip0_1686_15">
<rect width="223" height="238" fill="white"/>
</clipPath>
</defs>
</svg>
